<svg width="106" height="86" viewBox="0 0 106 86" fill="none" xmlns="http://www.w3.org/2000/svg">
<rect y="7.18579" width="100.665" height="78.3346" rx="10" transform="rotate(-4.09344 0 7.18579)" fill="#F9BCC4"/>
<path d="M26.6526 28.9599C26.6526 27.5733 26.9526 26.3399 27.5526 25.2599C28.1526 24.1666 28.9859 23.3199 30.0526 22.7199C31.1326 22.1066 32.3526 21.7999 33.7126 21.7999C35.3792 21.7999 36.8059 22.2399 37.9926 23.1199C39.1792 23.9999 39.9726 25.1999 40.3726 26.7199H36.6126C36.3326 26.1333 35.9326 25.6866 35.4126 25.3799C34.9059 25.0733 34.3259 24.9199 33.6726 24.9199C32.6192 24.9199 31.7659 25.2866 31.1126 26.0199C30.4592 26.7533 30.1326 27.7333 30.1326 28.9599C30.1326 30.1866 30.4592 31.1666 31.1126 31.8999C31.7659 32.6333 32.6192 32.9999 33.6726 32.9999C34.3259 32.9999 34.9059 32.8466 35.4126 32.5399C35.9326 32.2333 36.3326 31.7866 36.6126 31.1999H40.3726C39.9726 32.7199 39.1792 33.9199 37.9926 34.7999C36.8059 35.6666 35.3792 36.0999 33.7126 36.0999C32.3526 36.0999 31.1326 35.7999 30.0526 35.1999C28.9859 34.5866 28.1526 33.7399 27.5526 32.6599C26.9526 31.5799 26.6526 30.3466 26.6526 28.9599ZM56.227 21.9599V35.9999H52.807V30.2199H47.487V35.9999H44.067V21.9599H47.487V27.4599H52.807V21.9599H56.227ZM63.7159 24.6999V27.5399H68.2959V30.1799H63.7159V33.2599H68.8959V35.9999H60.2959V21.9599H68.8959V24.6999H63.7159ZM76.1362 33.3599H80.6162V35.9999H72.7162V21.9599H76.1362V33.3599ZM39.9485 62.1399C38.9218 62.1399 38.0018 61.9733 37.1885 61.6399C36.3752 61.3066 35.7218 60.8133 35.2285 60.1599C34.7485 59.5066 34.4952 58.7199 34.4685 57.7999H38.1085C38.1618 58.3199 38.3418 58.7199 38.6485 58.9999C38.9552 59.2666 39.3552 59.3999 39.8485 59.3999C40.3552 59.3999 40.7552 59.2866 41.0485 59.0599C41.3418 58.8199 41.4885 58.4933 41.4885 58.0799C41.4885 57.7333 41.3685 57.4466 41.1285 57.2199C40.9018 56.9933 40.6152 56.8066 40.2685 56.6599C39.9352 56.5133 39.4552 56.3466 38.8285 56.1599C37.9218 55.8799 37.1818 55.5999 36.6085 55.3199C36.0352 55.0399 35.5418 54.6266 35.1285 54.0799C34.7152 53.5333 34.5085 52.8199 34.5085 51.9399C34.5085 50.6333 34.9818 49.6133 35.9285 48.8799C36.8752 48.1333 38.1085 47.7599 39.6285 47.7599C41.1752 47.7599 42.4218 48.1333 43.3685 48.8799C44.3152 49.6133 44.8218 50.6399 44.8885 51.9599H41.1885C41.1618 51.5066 40.9952 51.1533 40.6885 50.8999C40.3818 50.6333 39.9885 50.4999 39.5085 50.4999C39.0952 50.4999 38.7618 50.6133 38.5085 50.8399C38.2552 51.0533 38.1285 51.3666 38.1285 51.7799C38.1285 52.2333 38.3418 52.5866 38.7685 52.8399C39.1952 53.0933 39.8618 53.3666 40.7685 53.6599C41.6752 53.9666 42.4085 54.2599 42.9685 54.5399C43.5418 54.8199 44.0352 55.2266 44.4485 55.7599C44.8618 56.2933 45.0685 56.9799 45.0685 57.8199C45.0685 58.6199 44.8618 59.3466 44.4485 59.9999C44.0485 60.6533 43.4618 61.1733 42.6885 61.5599C41.9152 61.9466 41.0018 62.1399 39.9485 62.1399ZM52.1932 50.6999V53.5399H56.7732V56.1799H52.1932V59.2599H57.3732V61.9999H48.7732V47.9599H57.3732V50.6999H52.1932ZM73.2335 47.9599L68.3735 57.3599V61.9999H64.9535V57.3599L60.0935 47.9599H63.9735L66.6935 53.8399L69.3935 47.9599H73.2335Z" fill="#0D2A76"/>
</svg>
