<svg width="60" height="129" viewBox="0 0 60 129" fill="none" xmlns="http://www.w3.org/2000/svg">
<g filter="url(#filter0_d_201_181)">
<path d="M39.6743 81.4833C41.1884 72.6661 38.117 64.9661 34.0104 57.5851C34.6022 56.5415 35.021 55.7314 35.4867 54.9559C40.279 47.0755 42.2226 38.4476 42.0705 29.3002C41.9694 23.0847 40.0465 17.4351 36.2581 12.4443C30.35 4.64442 18.8365 1.01947 9.5903 4.08716C7.25215 4.8636 4.84349 5.68241 2.9999 8.74316C5.17697 8.06723 6.49301 7.52781 7.87236 7.25732C18.9915 4.9946 32.6599 8.07163 36.1676 23.8567C38.4406 34.0892 36.2016 43.7489 30.9243 53.0377C29.6979 52.3101 28.7387 51.8215 27.8888 51.2079C20.9491 46.2211 12.9961 46.6994 6.87095 52.5182C4.0404 55.2031 2.2603 58.344 3.58166 62.3135C4.86927 66.1665 7.90062 68.0321 11.8598 68.5967C17.2413 69.3643 22.0281 67.9262 26.4376 64.9766C27.931 63.9793 29.3602 62.8762 30.8364 61.8079C40.7943 77.1635 33.999 96.4887 16.5232 103.152C19.8721 97.2662 20.7736 93.3933 19.2277 91.5337C15.5052 96.3043 11.8436 101.053 8.10939 105.768C6.90572 107.279 5.63753 109.062 7.2936 110.571C8.18963 111.382 10.3571 111.318 11.7856 110.97C20.5154 108.893 29.2149 106.639 37.9096 104.394C38.7023 104.188 39.3993 103.647 40.6208 103.013C35.8582 98.7222 31.1379 102.898 26.2826 101.711C31.9396 95.5961 38.1805 90.0961 39.6591 81.4888L39.6743 81.4833ZM12.6924 64.2425C10.3296 64.0759 7.98672 63.3018 7.7134 60.8697C7.53058 59.16 8.38676 56.8812 9.5702 55.5746C14.6034 50.0606 22.1324 50.7803 27.7805 57.4383C23.5123 62.0783 18.8067 64.6622 12.682 64.2377L12.6924 64.2425Z" fill="#3D3D3D"/>
</g>
<defs>
<filter id="filter0_d_201_181" x="0" y="0" width="59.0786" height="128.215" filterUnits="userSpaceOnUse" color-interpolation-filters="sRGB">
<feFlood flood-opacity="0" result="BackgroundImageFix"/>
<feColorMatrix in="SourceAlpha" type="matrix" values="0 0 0 0 0 0 0 0 0 0 0 0 0 0 0 0 0 0 127 0" result="hardAlpha"/>
<feOffset dx="7" dy="7"/>
<feGaussianBlur stdDeviation="5"/>
<feColorMatrix type="matrix" values="0 0 0 0 0.989583 0 0 0 0 0.876606 0 0 0 0 0.424696 0 0 0 1 0"/>
<feBlend mode="normal" in2="BackgroundImageFix" result="effect1_dropShadow_201_181"/>
<feBlend mode="normal" in="SourceGraphic" in2="effect1_dropShadow_201_181" result="shape"/>
</filter>
</defs>
</svg>
