<svg width="121" height="119" viewBox="0 0 121 119" fill="none" xmlns="http://www.w3.org/2000/svg">
<path d="M52.8943 0.994562C54.5542 0.995274 56.238 1.36066 57.824 2.06391C59.4101 2.76728 60.859 3.79129 62.0651 5.06119C63.2711 6.33104 64.2042 7.81542 64.798 9.40657C65.3913 10.9964 65.6314 12.6533 65.4995 14.258L62.6146 47.1989L64.5275 47.9478L79.6571 19.833L79.656 19.832C80.3977 18.459 81.4656 17.3043 82.7799 16.4501C84.0946 15.5957 85.6242 15.0645 87.2574 14.8951C88.8906 14.7257 90.5861 14.9226 92.2212 15.4711C93.8558 16.0194 95.3893 16.905 96.7092 18.0643L96.7093 18.0653C98.0299 19.2275 99.1041 20.6337 99.8528 22.1824C100.601 23.7311 101.006 25.3833 101.038 27.0183C101.07 28.6533 100.728 30.2309 100.037 31.6356C99.3461 33.0404 98.3224 34.237 97.0419 35.1389L70.862 53.5198L71.8362 55.3273L104.274 48.4752C105.861 48.1406 107.548 48.169 109.212 48.5577C110.876 48.9464 112.475 49.6853 113.894 50.7217C115.312 51.7581 116.514 53.0655 117.412 54.5484C118.31 56.0312 118.881 57.6527 119.085 59.2949C119.287 60.9334 119.117 62.5513 118.589 64.0317C118.06 65.5125 117.186 66.8192 116.029 67.8565C114.872 68.8937 113.46 69.6361 111.897 70.0292C110.432 70.3977 108.867 70.451 107.304 70.1865L106.991 70.1292L72.8163 63.2615L72.2872 65.069L103.004 83.448L103.004 83.449C104.506 84.3514 105.823 85.5482 106.861 86.9523C107.898 88.3565 108.63 89.9332 109.003 91.5676C109.376 93.2021 109.381 94.8543 109.017 96.4035C108.654 97.9514 107.932 99.3584 106.903 100.523C105.868 101.683 104.552 102.569 103.05 103.118C101.549 103.666 99.9012 103.863 98.2249 103.694C96.5485 103.524 94.8858 102.993 93.3587 102.139C91.8318 101.284 90.4782 100.128 89.3958 98.7539L67.328 70.6401L65.6 71.3899L76.5927 104.281C77.1293 105.889 77.306 107.552 77.11 109.147C76.9139 110.743 76.3494 112.232 75.4583 113.507C74.5672 114.782 73.3717 115.811 71.9576 116.518C70.5434 117.225 68.9461 117.592 67.2828 117.593C65.6233 117.592 63.9399 117.228 62.3543 116.525C60.7681 115.822 59.3192 114.798 58.1131 113.528C56.9071 112.258 55.974 110.773 55.3802 109.182C54.787 107.593 54.5469 105.935 54.6787 104.331L57.5637 71.3899L55.6516 70.6401L40.5043 98.7549C39.7635 100.129 38.6969 101.286 37.3819 102.141C36.0668 102.995 34.5364 103.527 32.9023 103.695C31.2683 103.863 29.5718 103.663 27.9367 103.112C26.4039 102.595 24.9615 101.781 23.7011 100.723L23.4513 100.508C22.1344 99.3449 21.0642 97.9385 20.3186 96.3909C19.573 94.843 19.1699 93.192 19.1396 91.5589C19.1094 89.926 19.4525 88.351 20.1434 86.9484C20.8345 85.5456 21.8571 84.3498 23.1363 83.449L23.1352 83.448L49.3632 65.0525L48.39 63.245L15.9045 70.1137C14.3173 70.4482 12.6304 70.4198 10.9664 70.0311C9.30218 69.6424 7.70272 68.9026 6.2844 67.8662C4.8663 66.8299 3.66445 65.5231 2.76658 64.0404C1.86893 62.558 1.29728 60.9367 1.0929 59.2949C0.891307 57.656 1.06072 56.037 1.58926 54.5562C2.11779 53.0756 2.99228 51.7695 4.14934 50.7323C5.30659 49.6951 6.71826 48.9528 8.2813 48.5597C9.74671 48.1911 11.3111 48.1378 12.8745 48.4023L13.1871 48.4596L47.3618 55.3264L47.891 53.5198L17.1744 35.1399C15.6722 34.2373 14.3549 33.0399 13.3173 31.6356C12.2797 30.2314 11.5478 28.6546 11.1749 27.0202C10.802 25.3859 10.7974 23.7344 11.1609 22.1853C11.5242 20.6374 12.2463 19.2305 13.2752 18.0662C14.3106 16.906 15.6265 16.0188 17.1277 15.4701C18.6286 14.9216 20.277 14.7248 21.9532 14.8941C23.6296 15.0635 25.2923 15.5946 26.8194 16.4491C28.2511 17.2503 29.5303 18.3171 30.5765 19.5795L30.7823 19.8339L52.8729 47.9973L54.601 47.2485L43.5854 14.3065C43.0489 12.6989 42.8722 11.037 43.0682 9.44154C43.2643 7.84576 43.8288 6.35655 44.7199 5.08159C45.6111 3.80667 46.8065 2.77768 48.2206 2.07071C49.6346 1.36386 51.2313 0.996213 52.8943 0.994562Z" fill="#EB5B2D" stroke="#FDFCF3" stroke-width="2"/>
</svg>
