<svg width="167" height="165" viewBox="0 0 167 165" fill="none" xmlns="http://www.w3.org/2000/svg">
<path d="M22.4462 98.428L67.5384 89.0568L31.0687 114.45C29.1309 115.805 27.5796 117.606 26.5275 119.724C25.4754 121.841 24.9488 124.221 24.9861 126.691C25.0234 129.161 25.6235 131.658 26.743 134.003C27.8624 136.347 29.4731 138.48 31.458 140.245C33.4445 142.01 35.7559 143.362 38.2239 144.204C40.6918 145.046 43.254 145.355 45.7239 145.11C48.1939 144.864 50.5093 144.07 52.5014 142.786C54.4936 141.501 56.1124 139.758 57.2398 137.684L78.3839 98.7582L74.225 144.436C74.0161 146.864 74.3693 149.374 75.259 151.783C76.1486 154.192 77.5525 156.441 79.3691 158.367C81.1857 160.293 83.3696 161.848 85.7627 162.919C88.1558 163.99 90.6984 164.551 93.2065 164.561V164.561C95.7193 164.567 98.1338 164.02 100.274 162.959C102.415 161.898 104.228 160.35 105.582 158.427C106.936 156.505 107.796 154.255 108.101 151.843C108.406 149.431 108.147 146.916 107.344 144.482L92.2544 98.8061L122.732 137.91C124.361 139.992 126.401 141.747 128.704 143.046C131.007 144.345 133.515 145.157 136.046 145.421C138.578 145.686 141.069 145.397 143.34 144.576C145.611 143.755 147.604 142.422 149.175 140.674V140.674C150.738 138.919 151.839 136.794 152.396 134.454C152.954 132.113 152.955 129.616 152.4 127.142C151.844 124.669 150.746 122.282 149.185 120.153C147.624 118.025 145.639 116.209 143.373 114.838L100.853 89.1947L148.231 98.8851C150.748 99.3881 153.28 99.3452 155.644 98.7594C158.007 98.1736 160.143 97.0596 161.898 95.498C163.652 93.9363 164.981 91.9661 165.788 89.7298C166.595 87.4936 166.86 85.0472 166.563 82.5677V82.5677C166.263 80.083 165.407 77.628 164.057 75.3812C162.707 73.1344 160.897 71.1521 158.759 69.5782C156.621 68.0044 154.208 66.8786 151.696 66.2827C149.183 65.6867 146.635 65.6355 144.235 66.1327L99.2091 75.4813L135.612 50.1106C137.552 48.7544 139.105 46.9505 140.157 44.8303C141.209 42.7101 141.734 40.3269 141.695 37.854C141.655 35.3811 141.051 32.8808 139.927 30.5349C138.803 28.1891 137.187 26.0567 135.197 24.293V24.293C133.207 22.533 130.895 21.1853 128.427 20.348C125.959 19.5106 123.398 19.2045 120.93 19.452C118.461 19.6994 116.148 20.4941 114.156 21.7784C112.165 23.0627 110.547 24.8044 109.418 26.877L88.297 65.8025L92.4559 20.1245C92.6648 17.6966 92.3116 15.1871 91.4219 12.7778C90.5323 10.3684 89.1284 8.11938 87.3118 6.19339C85.4952 4.26741 83.3113 2.71261 80.9182 1.64149C78.5251 0.57037 75.9825 0.00970577 73.4744 5.85131e-05V5.85131e-05C70.9616 -0.00632642 68.5471 0.540808 66.4064 1.60172C64.2658 2.66263 62.4527 4.21068 61.0989 6.13342C59.745 8.05615 58.8845 10.3053 58.5797 12.7175C58.2749 15.1297 58.5335 17.6443 59.3367 20.0787L74.4579 65.8233L43.9493 26.651C42.3201 24.5684 40.2801 22.8139 37.9771 21.5147C35.6742 20.2155 33.166 19.4042 30.6345 19.1396C28.1029 18.8749 25.6115 19.1636 23.3407 19.9847C21.07 20.8058 19.0768 22.1387 17.5059 23.8867V23.8867C15.9427 25.6417 14.8424 27.7665 14.2846 30.107C13.7268 32.4474 13.7256 34.9449 14.281 37.4183C14.8364 39.8917 15.9345 42.2791 17.4958 44.4073C19.057 46.5355 21.0422 48.3513 23.3074 49.7229L65.8275 75.3661L18.4497 65.6757C15.9328 65.1726 13.401 65.2156 11.0374 65.8014C8.67378 66.3871 6.53747 67.5012 4.78302 69.0628C3.02856 70.6244 1.69982 72.5947 0.892925 74.8309C0.0860323 77.0672 -0.178838 79.5136 0.117475 81.9931H0.117475C0.417725 84.4778 1.27392 86.9327 2.62388 89.1796C3.97383 91.4264 5.78364 93.4087 7.92184 94.9825C10.06 96.5563 12.4729 97.6821 14.9853 98.2781C17.4976 98.8741 20.0463 98.9253 22.4462 98.428V98.428Z" fill="#EB5B2D"/>
</svg>
