<svg width="150" height="150" viewBox="0 0 150 150" fill="none" xmlns="http://www.w3.org/2000/svg">
<path d="M74.0012 142.776L88.7169 149.132L100.247 137.901L115.861 138.106L122.066 123.745L136.837 117.881L137.045 102.057L148.766 90.64L142.841 75.7001L149.111 61.1929L137.735 49.4934L137.939 34.0261L123.932 27.9727L117.966 12.9275L101.891 12.7163L90.6397 1.16518L75.6789 7.08955L61.1091 0.798201L49.5792 12.0291L34.0699 11.8254L27.9303 26.0198L12.7587 32.0253L12.5476 48.1004L1.25121 59.1038L7.1549 74.0434L0.777242 88.8007L11.8634 100.182L11.658 115.817L26.2068 122.108L32.1111 137.006L47.9346 137.214L59.1035 148.68L74.0012 142.776Z" fill="#3255AF"/>
<path d="M23.2418 95.6322L14.1556 86.304L19.2201 74.5883L19.3842 74.2086L19.2321 73.8237L14.5428 61.9584L23.5059 53.2287L23.8027 52.9406L23.9758 39.763L36.0307 34.9922L36.4155 34.8391L36.5807 34.4594L41.4457 23.2098L54.1536 23.3767L54.4504 23.0876L63.6054 14.169L75.1658 19.1612L75.5456 19.3254L75.9304 19.1732L87.8116 14.4675L97.0386 23.9401L110.215 24.1132L114.953 36.0622L115.105 36.4471L115.486 36.6122L126.578 41.4048L126.412 54.0776L126.7 54.3743L135.739 63.6697L130.766 75.1786L130.602 75.5593L130.754 75.9441L135.459 87.8077L126.142 96.8834L125.846 97.1725L125.675 110.14L113.954 114.793L113.569 114.945L113.405 115.326L108.484 126.715L95.6906 126.546L95.3938 126.836L86.2378 135.752L74.557 130.707L74.1763 130.543L73.7915 130.696L61.9623 135.384L52.8057 125.983L39.839 125.813L35.1522 113.987L34.999 113.602L34.6193 113.437L23.0735 108.444L23.2418 95.6322Z" fill="#3255AF" stroke="#FDFCF3" stroke-width="2"/>
</svg>
