<svg width="31" height="31" viewBox="0 0 31 31" fill="none" xmlns="http://www.w3.org/2000/svg">
<path d="M15.5 1L17.8042 9.55792C18.0854 10.6022 18.226 11.1244 18.5034 11.5512C18.749 11.929 19.071 12.251 19.4488 12.4966C19.8756 12.774 20.3978 12.9147 21.4421 13.1958L30 15.5L21.4421 17.8042C20.3978 18.0854 19.8756 18.226 19.4488 18.5034C19.071 18.749 18.749 19.071 18.5034 19.4488C18.226 19.8756 18.0854 20.3978 17.8042 21.4421L15.5 30L13.1958 21.4421C12.9147 20.3978 12.774 19.8756 12.4966 19.4488C12.251 19.071 11.929 18.749 11.5512 18.5034C11.1244 18.226 10.6022 18.0854 9.55792 17.8042L1 15.5L9.55792 13.1958C10.6022 12.9147 11.1244 12.774 11.5512 12.4966C11.929 12.251 12.251 11.929 12.4966 11.5512C12.774 11.1244 12.9147 10.6022 13.1958 9.55792L15.5 1Z" fill="#FDFCF3" stroke="#FDFCF3" stroke-width="2" stroke-linecap="round" stroke-linejoin="round"/>
</svg>
